<?xml version="1.0" encoding="UTF-8"?>
<svg width="44px" height="43px" viewBox="0 0 44 43" version="1.1" xmlns="http://www.w3.org/2000/svg" xmlns:xlink="http://www.w3.org/1999/xlink">
    <!-- Generator: sketchtool 50.2 (55047) - http://www.bohemiancoding.com/sketch -->
    <title>408FD551-722A-4D2D-BDC1-447301BE5049</title>
    <desc>Created with sketchtool.</desc>
    <defs></defs>
    <g id="Desktop" stroke="none" stroke-width="1" fill="none" fill-rule="evenodd">
        <g id="About" transform="translate(-698.000000, -2052.000000)">
            <g id="Group-8" transform="translate(698.000000, 2052.000000)">
                <path d="M41,22 L41,30 L3,30 L3,22 C3,11.5065898 11.5065898,3 22,3 C32.4934102,3 41,11.5065898 41,22 Z" id="Oval-4" stroke="#000000" stroke-width="2"></path>
                <rect id="Rectangle-8" fill="#000000" x="16" y="0" width="2" height="8" rx="1"></rect>
                <rect id="Rectangle-8-Copy-2" fill="#000000" x="0" y="29" width="44" height="2" rx="1"></rect>
                <rect id="Rectangle-8-Copy" fill="#000000" x="26" y="0" width="2" height="8" rx="1"></rect>
                <g id="Group-7" transform="translate(9.000000, 33.000000)" stroke="#000000" stroke-width="2">
                    <path d="M3,1 L8.28300943,1 C9.72689213,1 10.8973903,2.1704982 10.8973903,3.6143809 C10.8973903,4.10436742 10.7596923,4.58449226 10.5,5 L8.88125199,7.58999682 C8.33303693,8.46714091 7.37162717,9 6.33725708,9 L3,9 C1.34314575,9 -7.34661044e-15,7.65685425 -7.54951657e-15,6 L-7.10542736e-15,4 C-7.30833348e-15,2.34314575 1.34314575,1 3,1 Z" id="Rectangle-9" stroke-linecap="round" stroke-linejoin="round"></path>
                    <path d="M16,1 L21.2830094,1 C22.7268921,1 23.8973903,2.1704982 23.8973903,3.6143809 C23.8973903,4.10436742 23.7596923,4.58449226 23.5,5 L21.881252,7.58999682 C21.3330369,8.46714091 20.3716272,9 19.3372571,9 L16,9 C14.3431458,9 13,7.65685425 13,6 L13,4 C13,2.34314575 14.3431458,1 16,1 Z" id="Rectangle-9-Copy" stroke-linecap="round" stroke-linejoin="round" transform="translate(19.500000, 5.000000) scale(-1, 1) translate(-19.500000, -5.000000) "></path>
                    <path d="M8,1 L18,1" id="Path-5"></path>
                    <path d="M11,4 L11,4 C12.2590292,3.37048539 13.7409708,3.37048539 15,4" id="Path-5"></path>
                </g>
            </g>
        </g>
    </g>
</svg>