<?xml version="1.0" encoding="UTF-8"?>
<svg width="41px" height="39px" viewBox="0 0 41 39" version="1.1" xmlns="http://www.w3.org/2000/svg" xmlns:xlink="http://www.w3.org/1999/xlink">
    <!-- Generator: sketchtool 50.2 (55047) - http://www.bohemiancoding.com/sketch -->
    <title>ACDC43D0-0FFB-4B76-8AE3-6DFB1A8E9BDA</title>
    <desc>Created with sketchtool.</desc>
    <defs></defs>
    <g id="Desktop" stroke="none" stroke-width="1" fill="none" fill-rule="evenodd">
        <g id="About" transform="translate(-700.000000, -1743.000000)">
            <g id="Group-3" transform="translate(701.000000, 1744.000000)">
                <circle id="Oval-3" fill="#000000" cx="5" cy="9" r="1"></circle>
                <circle id="Oval-3-Copy-2" fill="#000000" cx="5" cy="13" r="1"></circle>
                <circle id="Oval-3-Copy-4" fill="#000000" cx="5" cy="17" r="1"></circle>
                <circle id="Oval-3-Copy-6" fill="#000000" cx="5" cy="21" r="1"></circle>
                <circle id="Oval-3-Copy-8" fill="#000000" cx="5" cy="25" r="1"></circle>
                <circle id="Oval-3-Copy-10" fill="#000000" cx="5" cy="29" r="1"></circle>
                <circle id="Oval-3-Copy" fill="#000000" cx="9" cy="9" r="1"></circle>
                <circle id="Oval-3-Copy-3" fill="#000000" cx="9" cy="13" r="1"></circle>
                <circle id="Oval-3-Copy-5" fill="#000000" cx="9" cy="17" r="1"></circle>
                <circle id="Oval-3-Copy-7" fill="#000000" cx="9" cy="21" r="1"></circle>
                <circle id="Oval-3-Copy-9" fill="#000000" cx="9" cy="25" r="1"></circle>
                <circle id="Oval-3-Copy-11" fill="#000000" cx="9" cy="29" r="1"></circle>
                <rect id="Rectangle-2" stroke="#000000" stroke-width="2" stroke-linejoin="round" x="0" y="4" width="14" height="33"></rect>
                <rect id="Rectangle-2-Copy-5" stroke="#000000" stroke-width="2" stroke-linejoin="round" x="2" y="0" width="10" height="4"></rect>
                <rect id="Rectangle-2-Copy-4" stroke="#000000" stroke-width="2" stroke-linejoin="round" x="20" y="6" width="14" height="17"></rect>
                <path d="M34,37 C34,33.1340068 30.8659932,30 27,30 C23.1340068,30 20,33.1340068 20,37 L14,37 L14,23 L39,23 L39,37 L34,37 Z" id="Combined-Shape" stroke="#000000" stroke-width="2" stroke-linejoin="round"></path>
                <rect id="Rectangle-5" fill="#000000" x="24" y="9" width="6" height="2" rx="1"></rect>
                <rect id="Rectangle-5" fill="#000000" x="24" y="13" width="6" height="2" rx="1"></rect>
                <rect id="Rectangle-5" fill="#000000" x="24" y="17" width="6" height="2" rx="1"></rect>
            </g>
        </g>
    </g>
</svg>