<?xml version="1.0" encoding="UTF-8"?>
<svg width="34px" height="32px" viewBox="0 0 34 32" version="1.1" xmlns="http://www.w3.org/2000/svg" xmlns:xlink="http://www.w3.org/1999/xlink">
    <!-- Generator: sketchtool 50.2 (55047) - http://www.bohemiancoding.com/sketch -->
    <title>D83C46E6-AEFF-454F-84E1-EBF88225A68A</title>
    <desc>Created with sketchtool.</desc>
    <defs></defs>
    <g id="Desktop" stroke="none" stroke-width="1" fill="none" fill-rule="evenodd" stroke-linejoin="round">
        <g id="About" transform="translate(-341.000000, -1744.000000)" stroke="#000000" stroke-width="2">
            <g id="Group-2" transform="translate(342.000000, 1745.000000)">
                <polygon id="Rectangle-2" points="32 0 32 30 2 30"></polygon>
                <g id="Group" transform="translate(10.253048, 10.500000) rotate(-315.000000) translate(-10.253048, -10.500000) translate(8.253048, -2.000000)">
                    <polygon id="Rectangle-2-Copy-2" points="4 3 4 21 5.68434189e-13 21 5.68434189e-13 3 2 0"></polygon>
                    <path d="M1.47792889e-12,4.02943725 L4,4.02943725 L4,23 C4,24.1045695 3.1045695,25 2,25 L2,25 C0.8954305,25 1.47806416e-12,24.1045695 1.47792889e-12,23 L1.47792889e-12,4.02943725 Z" id="Rectangle-3"></path>
                </g>
                <polygon id="Rectangle-2" points="26 14.2469517 26 24.2469517 16 24.2469517"></polygon>
            </g>
        </g>
    </g>
</svg>