<?xml version="1.0" encoding="UTF-8"?>
<svg width="53px" height="42px" viewBox="0 0 53 42" version="1.1" xmlns="http://www.w3.org/2000/svg" xmlns:xlink="http://www.w3.org/1999/xlink">
    <!-- Generator: sketchtool 50.2 (55047) - http://www.bohemiancoding.com/sketch -->
    <title>FC267629-2FD0-41CA-AE07-C42F27BE5819</title>
    <desc>Created with sketchtool.</desc>
    <defs>
        <polygon id="path-1" points="7 -1.13686838e-13 14 16 0 16"></polygon>
    </defs>
    <g id="Desktop" stroke="none" stroke-width="1" fill="none" fill-rule="evenodd">
        <g id="About" transform="translate(-334.000000, -2052.000000)">
            <g id="Group-6" transform="translate(335.000000, 2053.000000)">
                <rect id="Rectangle-7" stroke="#000000" stroke-width="2" stroke-linecap="round" stroke-linejoin="round" x="11" y="0" width="18" height="8"></rect>
                <rect id="Rectangle-7" stroke="#000000" stroke-width="2" stroke-linecap="round" stroke-linejoin="round" x="33" y="0" width="18" height="8"></rect>
                <rect id="Rectangle-7-Copy" stroke="#000000" stroke-width="2" stroke-linecap="round" stroke-linejoin="round" x="22" y="12" width="18" height="8"></rect>
                <rect id="Rectangle-7-Copy-2" stroke="#000000" stroke-width="2" stroke-linecap="round" stroke-linejoin="round" x="0" y="12" width="18" height="8"></rect>
                <rect id="Rectangle-7-Copy-4" stroke="#000000" stroke-width="2" stroke-linecap="round" stroke-linejoin="round" x="33" y="24" width="18" height="8"></rect>
                <g id="Group-5" transform="translate(12.000000, 7.000000)">
                    <g id="Rectangle-7-Copy-5" stroke-linecap="round" stroke-linejoin="round">
                        <use stroke="#FFFFFF" stroke-width="6" fill="#FFFFFF" fill-rule="evenodd" xlink:href="#path-1"></use>
                        <use stroke="#000000" stroke-width="2" xlink:href="#path-1"></use>
                    </g>
                    <path d="M4,20 L10,20 L10,30 C10,31.6568542 8.65685425,33 7,33 L7,33 C5.34314575,33 4,31.6568542 4,30 L4,20 Z" id="Rectangle-7-Copy-6" stroke="#000000" stroke-width="2" stroke-linecap="round" stroke-linejoin="round"></path>
                    <path d="M7,16 L7,20" id="Path-4" stroke="#000000" stroke-width="2"></path>
                </g>
            </g>
        </g>
    </g>
</svg>