<?xml version="1.0" encoding="UTF-8"?>
<svg width="42px" height="14px" viewBox="0 0 42 14" version="1.1" xmlns="http://www.w3.org/2000/svg" xmlns:xlink="http://www.w3.org/1999/xlink">
    <!-- Generator: sketchtool 50.2 (55047) - http://www.bohemiancoding.com/sketch -->
    <title>AD869B3A-F9DD-4819-B447-42F91396D23D</title>
    <desc>Created with sketchtool.</desc>
    <defs></defs>
    <g id="Desktop" stroke="none" stroke-width="1" fill="none" fill-rule="evenodd">
        <g id="Home" transform="translate(-191.000000, -33.000000)" fill="#000000">
            <g id="Group-4" transform="translate(191.000000, 29.000000)">
                <path d="M10.26,12.41 L11.43,15.65 C10.98,16.1 9.72,17.216 7.02,17.216 C3.33,17.216 0.36,14.948 0.36,10.808 C0.36,6.668 3.33,4.4 7.02,4.4 C9.81,4.4 11.16,5.57 11.16,5.57 L10.08,8.99 C10.08,8.99 8.82,7.91 7.29,7.91 C5.76,7.91 4.446,8.81 4.446,10.754 C4.446,12.68 5.85,13.544 7.29,13.544 C8.73,13.544 9.72,12.95 10.26,12.41 Z M26.51,12.914 C26.51,14.21 25.88,15.38 24.89,16.154 C23.9,16.91 22.658,17.216 21.218,17.216 C19.778,17.216 18.122,16.82 16.43,15.56 L18.23,12.5 C19.382,13.472 21.002,13.85 21.542,13.85 C22.082,13.85 22.46,13.688 22.46,13.328 C22.46,12.968 22.01,12.824 21.56,12.68 C21.11,12.554 20.12,12.23 19.76,12.104 C19.4,11.96 18.68,11.726 18.05,11.186 C17.42,10.646 16.916,9.89 16.916,8.54 C16.916,7.19 17.618,6.146 18.356,5.534 C19.112,4.904 20.354,4.454 22.01,4.454 C23.666,4.454 25.358,5.048 26.438,5.948 L24.89,8.828 C23.954,8 22.586,7.64 21.938,7.64 C21.29,7.64 20.93,7.766 20.93,8.144 C20.93,8.504 21.506,8.63 21.794,8.72 C22.082,8.81 22.838,9.026 23.27,9.17 C23.702,9.314 24.71,9.674 25.34,10.214 C25.97,10.754 26.51,11.6 26.51,12.914 Z M41.23,4.58 L41.23,7.784 L36.64,7.784 L36.64,9.71 L40.96,9.71 L40.96,12.914 L36.64,12.914 L36.64,17 L32.59,17 L32.59,4.58 L41.23,4.58 Z" id="CSF"></path>
            </g>
        </g>
    </g>
</svg>